# xmcd
#
# Track frame offsets:
#	150
#	14961
#	33478
#	45954
#	64488
#	80822
#	95340
#	117507
#	139431
#	152309
#	169962
#	184327
#	204963
#	219887
#	233478
#	251215
#	268580
#	283976
#	297529
#	314346
#
# Disc length: 4334 seconds
#
# Revision: 0
# Processed by: cddbd v1.4PL0 Copyright (c) Steve Scherf et al.
# Submitted via: EasyCDDAExtractor 4.6.9.1
#
DISCID=3610ec14
DTITLE=Los Fernandez - Solo Exitos
DYEAR=1900
DGENRE=Folklore
TTITLE0=Fueron 3 años
TTITLE1=Si Tu Supieras
TTITLE2=Me voy a Quitar de en Medio
TTITLE3=Mi Forma de Sentir
TTITLE4=Como Quien Pierde una Estrella
TTITLE5=Mujeres Divinas
TTITLE6=La Mujer que Amas
TTITLE7=En el Jardin
TTITLE8=De que Manera te Olvido
TTITLE9=Quien
TTITLE10=Llorando Penas
TTITLE11=Nuestro Juramento
TTITLE12=Despacito
TTITLE13=Me Estoy Enamorando
TTITLE14=Por tu Maldito Amor
TTITLE15=Los Hombres no Beden Llorar
TTITLE16=La Mitad que me Faltaba
TTITLE17=Volver, Volver
TTITLE18=Si te Vas
TTITLE19=Como el Sol y el Trigo
EXTD=
EXTT0=
EXTT1=
EXTT2=
EXTT3=
EXTT4=
EXTT5=
EXTT6=
EXTT7=
EXTT8=
EXTT9=
EXTT10=
EXTT11=
EXTT12=
EXTT13=
EXTT14=
EXTT15=
EXTT16=
EXTT17=
EXTT18=
EXTT19=
PLAYORDER=
